<svg width="49" height="48" viewBox="0 0 49 48" fill="none" xmlns="http://www.w3.org/2000/svg">
<g clip-path="url(#clip0_68_121)">
<path d="M48.5 24C48.5 10.7452 37.7548 0 24.5 0C11.2452 0 0.5 10.7452 0.5 24C0.5 35.9789 9.27641 45.908 20.75 47.7084V30.9375H14.6562V24H20.75V18.7125C20.75 12.6975 24.3331 9.375 29.8152 9.375C32.4402 9.375 35.1875 9.84375 35.1875 9.84375V15.75H32.1613C29.18 15.75 28.25 17.6002 28.25 19.5V24H34.9062L33.8422 30.9375H28.25V47.7084C39.7236 45.908 48.5 35.9789 48.5 24Z" fill="white"/>
</g>
<defs>
<clipPath id="clip0_68_121">
<rect width="48" height="48" fill="white" transform="translate(0.5)"/>
</clipPath>
</defs>
</svg>
