<svg width="49" height="40" viewBox="0 0 49 40" fill="none" xmlns="http://www.w3.org/2000/svg">
<path d="M15.6003 39.5001C33.7091 39.5001 43.6166 24.4935 43.6166 11.4838C43.6166 11.0619 43.6072 10.6307 43.5884 10.2088C45.5157 8.81501 47.179 7.0886 48.5 5.11069C46.705 5.90929 44.7993 6.43086 42.8478 6.65756C44.9026 5.42591 46.4411 3.49104 47.1781 1.21163C45.2451 2.35721 43.1312 3.16532 40.9269 3.60131C39.4417 2.02321 37.478 0.978324 35.3394 0.628194C33.2008 0.278063 31.0064 0.642192 29.0955 1.66428C27.1846 2.68638 25.6636 4.3095 24.7677 6.28271C23.8718 8.25593 23.6509 10.4693 24.1391 12.5807C20.225 12.3843 16.3959 11.3675 12.9 9.59629C9.40405 7.82508 6.31939 5.33897 3.84594 2.29913C2.5888 4.46658 2.20411 7.03138 2.77006 9.47227C3.33601 11.9132 4.81013 14.047 6.89281 15.4401C5.32926 15.3904 3.79995 14.9695 2.43125 14.2119V14.3338C2.42985 16.6084 3.2162 18.8133 4.65662 20.5736C6.09704 22.334 8.10265 23.5412 10.3325 23.9901C8.88411 24.3863 7.36396 24.4441 5.88969 24.1588C6.51891 26.115 7.74315 27.8259 9.39154 29.0528C11.0399 30.2796 13.0302 30.9613 15.0847 31.0026C11.5968 33.7423 7.28835 35.2283 2.85313 35.2213C2.06657 35.2201 1.2808 35.1719 0.5 35.0769C5.00571 37.9676 10.2471 39.5029 15.6003 39.5001Z" fill="white"/>
</svg>
